<svg width="16" height="16" viewBox="0 0 16 16" fill="none" xmlns="http://www.w3.org/2000/svg">
<rect width="16" height="16" fill="#1F1F1F"/>
<path d="M8.49797 5.56816C8.26489 5.56767 8.03718 5.50016 7.84362 5.37416C7.65006 5.24816 7.49933 5.06932 7.41048 4.86025C7.32164 4.65117 7.29865 4.42123 7.34443 4.19949C7.39022 3.97774 7.50272 3.77414 7.66771 3.6144C7.83271 3.45466 8.0428 3.34596 8.27145 3.30202C8.5001 3.25808 8.73704 3.28088 8.95234 3.36754C9.16763 3.45419 9.35163 3.60082 9.48107 3.78889C9.61052 3.97696 9.67961 4.19804 9.67961 4.42419V4.45215H10.9989V4.42419C10.9991 4.0285 10.8993 3.6388 10.7085 3.28913C10.5176 2.93946 10.2413 2.64046 9.90389 2.41824C9.56645 2.19603 9.17806 2.05736 8.77264 2.01436C8.36723 1.97135 7.95713 2.02532 7.57817 2.17154C7.19921 2.31776 6.86291 2.55178 6.59866 2.85317C6.33441 3.15457 6.15025 3.51415 6.06225 3.90052C5.97426 4.28689 5.98511 4.68828 6.09386 5.06964C6.20262 5.451 6.40596 5.80072 6.68614 6.08826C6.72713 6.12989 6.76812 6.17028 6.81423 6.2088C7.27268 6.61987 7.87373 6.84856 8.49797 6.84945C8.60412 6.84966 8.70972 6.86409 8.8118 6.89233C9.08013 6.96432 9.31357 7.12606 9.47084 7.34895C9.62811 7.57183 9.69906 7.8415 9.67116 8.11026C9.64325 8.37901 9.51828 8.62953 9.31835 8.8175C9.11842 9.00547 8.85641 9.11878 8.57867 9.13739C8.55177 9.13739 8.21169 9.13739 8.18415 9.13739C8.17327 9.13739 8.18415 10.121 8.18415 10.4162C8.22963 10.4162 8.51142 10.4162 8.55626 10.4162C9.16399 10.408 9.74657 10.1795 10.1894 9.77556C10.5597 9.44524 10.8186 9.01414 10.9322 8.5387C11.0457 8.06325 11.0087 7.56562 10.8259 7.11094C10.6431 6.65625 10.3231 6.26571 9.90772 5.99044C9.49235 5.71516 9.00099 5.56798 8.49797 5.56816Z" fill="white"/>
<path d="M6.7045 6.37593L6.66735 6.34735C6.23805 6.79422 5.99954 7.38251 6 7.9934H7.32125C7.32117 7.78621 7.37917 7.5829 7.48906 7.40525C7.59894 7.22759 7.75657 7.08229 7.94505 6.98489C7.48368 6.89089 7.05587 6.68089 6.7045 6.37593Z" fill="white"/>
<path d="M10.3329 9.91162C9.97938 10.2339 9.54172 10.4561 9.06733 10.5541C9.24454 10.6466 9.39395 10.7821 9.50092 10.9475C9.59876 11.0989 9.65866 11.2705 9.67582 11.4485C9.69298 11.6264 9.66692 11.8058 9.59973 11.9722C9.53254 12.1387 9.42609 12.2875 9.28892 12.4068C9.15175 12.5261 8.98767 12.6126 8.80984 12.6593C8.63201 12.706 8.44538 12.7116 8.26492 12.6757C8.08445 12.6397 7.91517 12.5633 7.77066 12.4524C7.62614 12.3416 7.5104 12.1994 7.43273 12.0374C7.35505 11.8753 7.31761 11.6978 7.32338 11.5191L6.00021 11.5198C5.99516 11.8964 6.08064 12.2689 6.24988 12.6079C6.41912 12.9468 6.66745 13.2428 6.97518 13.4724C7.2829 13.702 7.64154 13.8588 8.02263 13.9305C8.40373 14.0021 8.79679 13.9866 9.17062 13.8851C9.54445 13.7837 9.88877 13.5991 10.1762 13.346C10.4637 13.0929 10.6864 12.7783 10.8267 12.4271C10.967 12.0759 11.021 11.6979 10.9844 11.3229C10.9478 10.948 10.8217 10.5864 10.6159 10.2671C10.5331 10.1402 10.4381 10.0212 10.3322 9.91162" fill="white"/>
</svg>
