<svg width="24" height="24" viewBox="0 0 24 24" fill="none" xmlns="http://www.w3.org/2000/svg">
<path d="M9.38574 14.2113C9.38453 13.6857 9.56623 13.1761 9.8998 12.7697C10.2334 12.3635 10.698 12.0861 11.2138 11.9849V11.5051C11.2138 11.1634 11.4908 10.8866 11.8323 10.8866C12.1738 10.8866 12.4507 11.1634 12.4507 11.5051V11.9998C13.1891 12.1896 13.796 12.7142 14.0909 13.4173C14.2104 13.7293 14.0605 14.0801 13.7521 14.2092C13.4439 14.3383 13.0888 14.199 12.9505 13.8946C12.8585 13.6746 12.7035 13.4867 12.5051 13.3547C12.3065 13.2225 12.0732 13.1523 11.8347 13.1526C11.2509 13.1526 10.6251 13.4841 10.6251 14.2115C10.6251 14.402 10.6251 14.9759 11.9733 15.2851H11.9931C13.9722 15.7478 14.2814 16.9078 14.2814 17.5586C14.2826 18.0842 14.1007 18.5938 13.7672 18.9999C13.4336 19.4061 12.9691 19.6836 12.4531 19.7847V20.2796C12.4531 20.6211 12.1764 20.8981 11.8347 20.8981C11.4932 20.8981 11.2163 20.6211 11.2163 20.2796V19.7847C10.4779 19.5949 9.87101 19.0704 9.57628 18.3674C9.50691 18.215 9.50242 18.0412 9.56333 17.8856C9.62442 17.7298 9.74607 17.6055 9.90034 17.5408C10.0546 17.4763 10.2285 17.477 10.3823 17.5427C10.536 17.6085 10.6566 17.7337 10.7165 17.8899C10.8088 18.1101 10.9643 18.2982 11.1633 18.4302C11.3622 18.5623 11.5959 18.6326 11.8347 18.6321C12.4184 18.6321 13.0443 18.3006 13.0443 17.5732C13.0443 17.3827 13.0443 16.8088 11.6961 16.4996H11.6763C9.68252 16.0247 9.38574 14.8644 9.38574 14.2113ZM13.8385 5.72359C14.1179 5.91324 14.4977 5.84404 14.6918 5.56778L16.8217 2.53493C17.0065 2.26988 16.9572 1.90734 16.708 1.70131C13.9721 -0.56953 9.68732 -0.567144 6.95379 1.70873C6.70583 1.91459 6.65752 2.27628 6.8425 2.53992L8.97255 5.56778C9.17358 5.83265 9.54801 5.89115 9.8203 5.70013C10.0924 5.50911 10.1649 5.13708 9.98423 4.85789L8.19808 2.31733C9.27691 1.60656 10.5403 1.2278 11.8321 1.2278C13.1239 1.2278 14.3874 1.60657 15.4662 2.31733L13.6801 4.86289C13.4842 5.14226 13.5518 5.52758 13.8309 5.72376L13.8385 5.72359ZM3.50301 17.7687C3.50802 15.7265 3.95806 13.71 4.82136 11.8594C5.68484 10.0087 6.94086 8.36846 8.50252 7.05237C8.61381 6.95832 8.75496 6.90655 8.90078 6.90638H14.761C14.9068 6.90655 15.0478 6.95832 15.1592 7.05237C16.7212 8.3681 17.9778 10.0084 18.8416 11.859C19.7054 13.7097 20.1558 15.7264 20.1611 17.7687V19.5275L20.3516 19.619C20.9844 19.9213 21.4449 20.4956 21.6026 21.1789C21.7604 21.862 21.5982 22.5801 21.1621 23.1293C20.7259 23.6784 20.0634 23.999 19.3622 24H4.29952C3.59825 23.999 2.93563 23.6784 2.49959 23.1293C2.06336 22.58 1.90133 21.862 2.05905 21.1789C2.21676 20.4955 2.67731 19.9213 3.30989 19.619L3.5004 19.5275L3.50301 17.7687ZM3.25556 21.932C3.30768 22.1684 3.43916 22.3799 3.62812 22.531C3.81724 22.6824 4.05243 22.7643 4.29453 22.7631H19.3598C19.6837 22.7619 19.9893 22.6135 20.1907 22.36C20.3921 22.1066 20.4673 21.7753 20.3952 21.4595C20.3232 21.1439 20.1115 20.8781 19.82 20.7371L19.2782 20.4897C19.0592 20.3837 18.9227 20.159 18.9295 19.9158V17.7685C18.9236 15.9437 18.5284 14.1413 17.7704 12.4814C17.0124 10.8216 15.9088 9.34256 14.5336 8.14313H9.13105C7.75629 9.34309 6.65347 10.8228 5.89628 12.4831C5.1389 14.1435 4.74482 15.9463 4.74014 17.7712V19.9185C4.73962 20.1561 4.60313 20.3723 4.38881 20.475L3.84697 20.7225C3.62472 20.8253 3.44474 21.0022 3.33795 21.2225C3.23113 21.4431 3.20387 21.6938 3.26081 21.9321L3.25556 21.932Z" fill="#1F1F1F"/>
</svg>
