<svg width="124" height="30" viewBox="0 0 124 30" fill="none" xmlns="http://www.w3.org/2000/svg">
<path d="M6.09609 8.93924C5.52721 8.93801 4.97145 8.76888 4.49905 8.45321C4.02664 8.13755 3.65878 7.68952 3.44193 7.16572C3.22509 6.64193 3.16899 6.06588 3.28073 5.51034C3.39247 4.95481 3.66703 4.44473 4.06973 4.04454C4.47243 3.64435 4.98519 3.37201 5.54323 3.26193C6.10127 3.15185 6.67955 3.20896 7.20501 3.42606C7.73047 3.64316 8.17954 4.0105 8.49546 4.48168C8.81139 4.95285 8.98001 5.5067 8.98001 6.07327V6.14333H12.2V6.07327C12.2003 5.08196 11.9569 4.10565 11.491 3.22963C11.0252 2.35361 10.351 1.60452 9.5274 1.04781C8.70383 0.491104 7.75591 0.143705 6.76645 0.0359658C5.77699 -0.0717738 4.77609 0.0634231 3.85119 0.429746C2.92629 0.796069 2.10552 1.38237 1.46058 2.13744C0.815648 2.89251 0.366166 3.79338 0.151404 4.76134C-0.0633592 5.7293 -0.0368697 6.73491 0.228558 7.69032C0.493986 8.64573 0.990277 9.52188 1.67408 10.2422C1.77412 10.3465 1.87415 10.4477 1.9867 10.5442C3.10561 11.5741 4.57255 12.147 6.09609 12.1493C6.35514 12.1498 6.61288 12.1859 6.86201 12.2567C7.5169 12.437 8.08665 12.8422 8.47049 13.4006C8.85432 13.959 9.02749 14.6346 8.95938 15.3079C8.89127 15.9812 8.58627 16.6088 8.09831 17.0798C7.61035 17.5507 6.97089 17.8346 6.29304 17.8812C6.22739 17.8812 5.39738 17.8812 5.33017 17.8812C5.30359 17.8812 5.33017 20.3455 5.33017 21.085C5.44115 21.085 6.12891 21.085 6.23833 21.085C7.72159 21.0644 9.14345 20.4919 10.2242 19.48C11.128 18.6524 11.7598 17.5724 12.037 16.3813C12.3142 15.1902 12.2238 13.9434 11.7777 12.8043C11.3316 11.6652 10.5505 10.6868 9.53674 9.99717C8.52298 9.30753 7.32377 8.9388 6.09609 8.93924Z" fill="#1F1F1F"/>
<path d="M1.72136 10.9627L1.63071 10.8911C0.582945 12.0107 0.000836445 13.4845 0.00195473 15.0149H3.22663C3.22642 14.4959 3.36799 13.9865 3.63618 13.5414C3.90437 13.0964 4.28908 12.7323 4.74909 12.4883C3.62305 12.2528 2.57893 11.7267 1.72136 10.9627Z" fill="#1F1F1F"/>
<path d="M10.5749 19.8208C9.71218 20.6281 8.64401 21.1848 7.4862 21.4305C7.91871 21.6621 8.28337 22.0017 8.54442 22.4159C8.78321 22.7953 8.92941 23.2252 8.97129 23.671C9.01317 24.1169 8.94957 24.5663 8.78559 24.9832C8.62161 25.4002 8.36181 25.7731 8.02702 26.072C7.69223 26.3709 7.29178 26.5875 6.85777 26.7045C6.42375 26.8214 5.96826 26.8355 5.52781 26.7455C5.08737 26.6555 4.67422 26.464 4.32151 26.1863C3.96879 25.9086 3.68632 25.5524 3.49675 25.1464C3.30718 24.7403 3.21578 24.2957 3.22988 23.8481L0.000516773 23.8497C-0.0118181 24.7931 0.196817 25.7265 0.609865 26.5757C1.02291 27.4248 1.629 28.1664 2.38004 28.7416C3.13107 29.3168 4.00638 29.7097 4.93649 29.8892C5.8666 30.0686 6.82591 30.0298 7.7383 29.7756C8.65068 29.5214 9.49102 29.0589 10.1926 28.4248C10.8942 27.7908 11.4378 27.0026 11.7802 26.1228C12.1226 25.243 12.2543 24.2958 12.165 23.3565C12.0758 22.4171 11.7679 21.5114 11.2658 20.7113C11.0635 20.3935 10.8316 20.0954 10.5733 19.8208" fill="#1F1F1F"/>
<path d="M25.4072 19.512C28.4192 19.512 29.7632 18.444 29.7632 16.608C29.7632 15.432 29.1992 14.76 27.8912 14.412C27.2432 14.232 26.4152 14.124 25.3832 14.076C24.1832 14.028 23.4872 13.932 23.1152 13.788C22.7312 13.644 22.6472 13.44 22.6472 13.14C22.6472 12.528 23.1632 12.168 24.7712 12.168C26.3912 12.168 27.3752 12.384 27.6152 13.476H29.7632C29.3672 11.316 27.7832 10.488 24.8072 10.488C22.0112 10.488 20.6072 11.544 20.6072 13.2C20.6072 14.4 21.1472 15.084 22.2872 15.42C22.8632 15.6 23.5832 15.708 24.4472 15.756C26.1992 15.852 27.0752 15.912 27.4592 16.164C27.6392 16.272 27.7352 16.476 27.7352 16.752C27.7352 17.46 27.0272 17.76 25.4552 17.76C23.7392 17.76 22.6712 17.412 22.3832 16.224H20.1992C20.4992 17.748 21.2192 18.696 22.6472 19.164C23.3672 19.404 24.2792 19.512 25.4072 19.512Z" fill="#1F1F1F"/>
<path d="M35.1613 19.488C38.2213 19.488 39.9613 18.588 39.9613 16.8C39.9613 15.516 39.1933 15 37.8133 14.82C39.0013 14.64 39.7813 14.196 39.7813 13.02C39.7813 11.916 39.0013 11.16 37.6693 10.776C37.0093 10.584 36.2413 10.488 35.3533 10.488C32.3773 10.488 30.5893 11.532 30.5893 13.788H32.6173C32.6293 12.708 33.4453 12.192 35.3413 12.192C36.9013 12.192 37.6573 12.54 37.6573 13.284C37.6573 13.932 37.0693 14.136 35.4973 14.136H34.0573V15.672H35.5573C37.2253 15.672 37.7893 15.924 37.7893 16.68C37.7893 17.376 37.1053 17.748 35.2093 17.748C33.3613 17.748 32.5933 17.316 32.5933 16.092H30.5173C30.5173 17.64 31.0453 18.636 32.4133 19.116C33.0853 19.368 34.0093 19.488 35.1613 19.488Z" fill="#1F1F1F"/>
<path d="M46.3752 16.608H48.9433C51.8113 16.62 53.2032 15.648 53.2032 13.716C53.2032 12.312 52.6632 11.448 51.3552 11.016C50.6952 10.812 49.8433 10.704 48.7513 10.704H44.3833V19.26H46.3752V16.608ZM46.3752 12.396H48.7633C49.8673 12.396 50.5753 12.468 50.9113 12.84C51.0913 13.02 51.1753 13.296 51.1753 13.704C51.1753 14.64 50.5753 14.916 48.8232 14.916H46.3752V12.396Z" fill="#1F1F1F"/>
<path d="M60.3056 17.4L61.2176 19.26H63.3656L58.9616 10.704H56.8376L52.5056 19.26H54.6776L55.5656 17.4H60.3056ZM57.8936 12.516L59.4896 15.768H56.3456L57.8936 12.516Z" fill="#1F1F1F"/>
<path d="M66.3326 16.5H68.7446C69.8366 16.5 70.4126 16.668 70.6886 17.148C70.8206 17.388 70.8806 17.724 70.8806 18.156V18.684C70.8806 18.912 70.9166 19.176 71.1206 19.26H73.2206C73.0406 19.152 73.0166 18.912 73.0166 18.708V18.144C73.0166 16.62 72.4646 15.948 71.2046 15.672C72.4886 15.348 73.0766 14.688 73.0766 13.404C73.0766 11.52 71.8526 10.704 68.8286 10.704H64.3286V19.26H66.3326V16.5ZM66.3326 12.408H68.8046C69.8126 12.408 70.4486 12.48 70.7726 12.804C70.9166 12.96 71.0006 13.2 71.0006 13.524V13.68C71.0006 14.352 70.6046 14.628 69.9086 14.724C69.5726 14.76 69.1886 14.784 68.7326 14.784H66.3326V12.408Z" fill="#1F1F1F"/>
<path d="M79.0376 12.42H82.2536V10.704H73.9016V12.42H76.9736V19.26H79.0376V12.42Z" fill="#1F1F1F"/>
<path d="M85.5616 13.272L85.6456 13.392L90.9016 19.26H92.8336V10.704H90.9016V16.62L90.8296 16.512L85.6336 10.704H83.6176V19.26H85.5616V13.272Z" fill="#1F1F1F"/>
<path d="M103.163 19.26V17.508H96.6707V15.816H101.951V14.124H96.6707V12.396H102.911V10.704H94.7387V19.26H103.163Z" fill="#1F1F1F"/>
<path d="M106.575 16.5H108.987C110.079 16.5 110.655 16.668 110.931 17.148C111.063 17.388 111.123 17.724 111.123 18.156V18.684C111.123 18.912 111.159 19.176 111.363 19.26H113.463C113.283 19.152 113.259 18.912 113.259 18.708V18.144C113.259 16.62 112.707 15.948 111.447 15.672C112.731 15.348 113.319 14.688 113.319 13.404C113.319 11.52 112.095 10.704 109.071 10.704H104.571V19.26H106.575V16.5ZM106.575 12.408H109.047C110.055 12.408 110.691 12.48 111.015 12.804C111.159 12.96 111.243 13.2 111.243 13.524V13.68C111.243 14.352 110.847 14.628 110.151 14.724C109.815 14.76 109.431 14.784 108.975 14.784H106.575V12.408Z" fill="#1F1F1F"/>
<path d="M119.521 19.512C122.533 19.512 123.876 18.444 123.876 16.608C123.876 15.432 123.312 14.76 122.005 14.412C121.356 14.232 120.528 14.124 119.496 14.076C118.297 14.028 117.601 13.932 117.229 13.788C116.844 13.644 116.76 13.44 116.76 13.14C116.76 12.528 117.276 12.168 118.884 12.168C120.505 12.168 121.489 12.384 121.729 13.476H123.876C123.48 11.316 121.896 10.488 118.921 10.488C116.125 10.488 114.72 11.544 114.72 13.2C114.72 14.4 115.26 15.084 116.4 15.42C116.976 15.6 117.697 15.708 118.561 15.756C120.312 15.852 121.188 15.912 121.573 16.164C121.753 16.272 121.848 16.476 121.848 16.752C121.848 17.46 121.14 17.76 119.568 17.76C117.852 17.76 116.785 17.412 116.496 16.224H114.312C114.613 17.748 115.332 18.696 116.76 19.164C117.48 19.404 118.393 19.512 119.521 19.512Z" fill="#1F1F1F"/>
</svg>
