<svg width="96" height="256" viewBox="0 0 96 256" fill="none" xmlns="http://www.w3.org/2000/svg">
<g clip-path="url(#clip0_1779_770)">
<path d="M1.0787 252.274H3.0141C3.26972 253.37 4.23133 253.686 5.75287 253.686C7.27441 253.686 7.79782 253.418 7.79782 252.761C7.79782 252.104 7.18921 251.982 4.87647 251.848C2.56373 251.714 1.46822 251.154 1.46822 249.499C1.46822 247.843 2.68545 247.064 5.19295 247.064C7.70044 247.064 9.23415 247.843 9.59932 249.803H7.66393C7.457 248.817 6.56842 248.586 5.14426 248.586C3.7201 248.586 3.25755 248.927 3.25755 249.475C3.25755 250.022 3.53751 250.229 5.69201 250.327C8.43078 250.461 9.57498 251.057 9.57498 252.652C9.57498 254.246 8.35775 255.317 5.70418 255.317C2.70979 255.317 1.46822 254.392 1.0787 252.299" fill="black"/>
<path d="M10.5226 252.152H12.3727C12.3727 253.284 13.0544 253.674 14.6977 253.674C16.3409 253.674 16.986 253.321 16.986 252.7C16.986 252.079 16.487 251.775 15.002 251.775H13.6752V250.363H14.9533C16.3409 250.363 16.8643 250.18 16.8643 249.584C16.8643 248.988 16.1705 248.574 14.8072 248.574C13.1396 248.574 12.3727 249.061 12.3727 250.047H10.5834C10.5834 248.002 12.1902 247.016 14.8194 247.016C17.1686 247.016 18.751 247.819 18.751 249.341C18.751 250.424 18.0572 250.838 17.0104 250.996C18.2276 251.154 18.9214 251.629 18.9214 252.81C18.9214 254.441 17.3512 255.244 14.649 255.244C11.5694 255.244 10.5226 254.246 10.5226 252.116" fill="black"/>
<path d="M25.2242 248.78V251.092H27.4031C28.949 251.092 29.4846 250.825 29.4846 249.985C29.4846 248.901 28.8029 248.767 27.3422 248.767L25.2242 248.78ZM25.2242 252.65V255.085H23.4593V247.197H27.3301C30.2149 247.197 31.2861 248.037 31.2861 249.96C31.2861 251.884 30.0688 252.638 27.5126 252.614L25.2242 252.65Z" fill="black"/>
<path d="M35.0816 248.889L36.5055 251.871H33.7064L35.0816 248.889ZM34.1445 247.197L30.2988 255.047H32.2217L33.0127 253.331H37.2235L38.0389 255.047H39.9496L36.0309 247.197H34.1445Z" fill="black"/>
<path d="M42.8586 248.792V250.971H44.9887C46.206 250.971 46.9972 250.898 46.9972 249.96V249.814C46.9972 248.938 46.4007 248.792 45.0496 248.792H42.8586ZM42.8586 252.553V255.085H41.0814V247.197H45.0739C47.7518 247.197 48.8474 247.952 48.8474 249.632C48.8955 250.128 48.7482 250.623 48.4367 251.011C48.1252 251.4 47.6742 251.652 47.1797 251.713C48.2996 251.969 48.7987 252.602 48.7987 253.989V254.501C48.7832 254.594 48.7919 254.69 48.8239 254.78C48.8558 254.869 48.91 254.949 48.9813 255.012H47.1067C46.9241 254.927 46.8998 254.683 46.8998 254.476V253.989C46.8998 252.772 46.4372 252.48 45.0009 252.48L42.8586 252.553Z" fill="black"/>
<path d="M49.868 247.222V248.804H52.6798V255.073H54.5057V248.804H57.4879V247.222H49.868Z" fill="black"/>
<path d="M65.4347 247.222V252.651L65.3738 252.553L60.7605 247.222H58.9712V255.073H60.6875V249.583L60.7605 249.693L65.4347 255.073H67.151V247.222H65.4347Z" fill="black"/>
<path d="M69.121 247.222V255.073H76.6069V253.466H70.8373V251.92H75.4993V250.362H70.8373V248.78H76.3513V247.222H69.121Z" fill="black"/>
<path d="M79.9158 248.792V250.971H82.0338C83.251 250.971 84.0422 250.898 84.0422 249.96V249.814C84.0422 248.938 83.4458 248.792 82.0946 248.792H79.9158ZM79.9158 252.553V255.085H78.1265V247.197H82.1312C84.8091 247.197 85.9046 247.952 85.9046 249.632C85.9528 250.128 85.8054 250.623 85.4939 251.011C85.1824 251.4 84.7314 251.652 84.237 251.713C85.3446 251.969 85.8559 252.602 85.8559 253.989V254.501C85.8405 254.594 85.8491 254.69 85.8811 254.78C85.913 254.869 85.9672 254.949 86.0385 255.012H84.1639C83.9692 254.927 83.957 254.683 83.957 254.476V253.989C83.957 252.772 83.4944 252.48 82.0581 252.48L79.9158 252.553Z" fill="black"/>
<path d="M87.0105 252.297H88.9581C89.2137 253.38 90.1753 253.709 91.6847 253.709C93.194 253.709 93.7053 253.429 93.7053 252.784C93.7053 252.138 93.0967 251.992 90.7839 251.858C88.4712 251.725 87.3757 251.177 87.3757 249.521C87.3757 247.866 88.5929 247.087 91.1126 247.087C93.6322 247.087 95.1538 247.878 95.5068 249.838H93.6079C93.3888 248.84 92.5002 248.621 91.0761 248.621C89.6519 248.621 89.1893 248.961 89.1893 249.509C89.1893 250.057 89.4815 250.276 91.6238 250.373C94.3626 250.507 95.5068 251.104 95.5068 252.698C95.5068 254.293 94.2895 255.364 91.636 255.364C88.6416 255.364 87.4122 254.439 87.0105 252.345" fill="black"/>
<path d="M47.9573 70.5996C43.5281 70.59 39.2012 69.2678 35.5232 66.8001C31.8451 64.3324 28.981 60.8299 27.2927 56.7351C25.6044 52.6403 25.1677 48.137 26.0376 43.7941C26.9076 39.4512 29.0453 35.4636 32.1806 32.3351C35.3159 29.2066 39.3081 27.0776 43.6529 26.217C47.9977 25.3565 52.5 25.803 56.5911 27.5002C60.6822 29.1974 64.1785 32.069 66.6383 35.7524C69.098 39.4358 70.4108 43.7656 70.4108 48.1948V48.7425H95.4808V48.1948C95.4833 40.4452 93.5882 32.8129 89.961 25.9645C86.3338 19.1162 81.0848 13.2602 74.6727 8.90811C68.2606 4.55602 60.8803 1.84022 53.1766 0.997961C45.4729 0.155703 37.6801 1.21261 30.4791 4.07635C23.278 6.94009 16.8877 11.5236 11.8664 17.4263C6.84512 23.3291 3.34557 30.3716 1.67348 37.9387C0.00138634 45.5057 0.207627 53.3671 2.27418 60.8361C4.34074 68.3051 8.20473 75.1544 13.5286 80.7858C14.3075 81.6012 15.0864 82.3922 15.9626 83.1468C24.6742 91.1975 36.0954 95.6765 47.9573 95.694C49.9742 95.698 51.9809 95.9806 53.9206 96.5337C59.0194 97.9436 63.4554 101.111 66.4438 105.477C69.4322 109.842 70.7805 115.123 70.2502 120.387C69.7199 125.65 67.3452 130.557 63.5461 134.238C59.747 137.92 54.7683 140.139 49.4907 140.504C48.9796 140.504 42.5174 140.504 41.994 140.504C41.7872 140.504 41.994 159.769 41.994 165.549C42.8581 165.549 48.2129 165.549 49.0648 165.549C60.613 165.389 71.6833 160.913 80.098 153.002C87.1345 146.533 92.0537 138.09 94.2118 128.778C96.3698 119.466 95.6661 109.72 92.1927 100.815C88.7194 91.9101 82.6382 84.2613 74.7454 78.87C66.8525 73.4787 57.5157 70.5961 47.9573 70.5996Z" fill="black"/>
<path d="M13.8815 86.4202L13.1756 85.8604C5.01803 94.6124 0.485874 106.134 0.49458 118.098H25.6011C25.5995 114.041 26.7017 110.059 28.7898 106.579C30.8778 103.1 33.873 100.254 37.4546 98.3467C28.6875 96.5056 20.5583 92.3927 13.8815 86.4202Z" fill="black"/>
<path d="M82.824 155.667C76.1072 161.978 67.7907 166.33 58.7763 168.251C62.1437 170.061 64.9828 172.716 67.0153 175.954C68.8745 178.92 70.0127 182.281 70.3388 185.766C70.6649 189.252 70.1697 192.765 68.893 196.025C67.6163 199.284 65.5935 202.199 62.987 204.536C60.3804 206.873 57.2626 208.566 53.8834 209.48C50.5043 210.395 46.958 210.504 43.5288 209.801C40.0996 209.097 36.8829 207.6 34.1368 205.429C31.3906 203.258 29.1914 200.474 27.7154 197.3C26.2395 194.125 25.5279 190.649 25.6376 187.151L0.494624 187.163C0.398588 194.538 2.02297 201.835 5.23886 208.473C8.45475 215.112 13.1736 220.909 19.021 225.405C24.8684 229.902 31.6833 232.974 38.9249 234.377C46.1665 235.78 53.6355 235.476 60.7391 233.489C67.8427 231.502 74.3853 227.886 79.8479 222.929C85.3104 217.973 89.5425 211.811 92.2082 204.933C94.8739 198.055 95.8998 190.651 95.2046 183.307C94.5094 175.964 92.1121 168.884 88.2031 162.628C86.6281 160.144 84.8231 157.813 82.8119 155.667" fill="black"/>
</g>
<defs>
<clipPath id="clip0_1779_770">
<rect width="95.0105" height="254.607" fill="white" transform="translate(0.494751 0.696289)"/>
</clipPath>
</defs>
</svg>
